<svg xmlns="http://www.w3.org/2000/svg" xmlns:xlink="http://www.w3.org/1999/xlink" width="193" zoomAndPan="magnify" viewBox="0 0 144.75 38.249999" height="51" preserveAspectRatio="xMidYMid meet" version="1.0"><defs><g/></defs><g fill="#000000" fill-opacity="1"><g transform="translate(45.555557, 22.067306)"><g><path d="M 5.921875 -10.390625 C 6.648438 -10.390625 7.253906 -10.234375 7.734375 -9.921875 C 8.210938 -9.617188 8.554688 -9.179688 8.765625 -8.609375 C 9.171875 -9.179688 9.617188 -9.617188 10.109375 -9.921875 C 10.597656 -10.234375 11.195312 -10.390625 11.90625 -10.390625 C 12.925781 -10.390625 13.707031 -10.097656 14.25 -9.515625 C 14.800781 -8.929688 15.078125 -8.109375 15.078125 -7.046875 L 15.078125 0 L 13.359375 0 L 13.359375 -6.53125 C 13.359375 -7.351562 13.210938 -7.953125 12.921875 -8.328125 C 12.628906 -8.710938 12.160156 -8.90625 11.515625 -8.90625 C 10.691406 -8.90625 10.070312 -8.625 9.65625 -8.0625 C 9.25 -7.507812 9.046875 -6.816406 9.046875 -5.984375 L 9.046875 0 L 7.3125 0 L 7.3125 -6.6875 C 7.3125 -7.425781 7.164062 -7.976562 6.875 -8.34375 C 6.582031 -8.71875 6.128906 -8.90625 5.515625 -8.90625 C 5.015625 -8.90625 4.546875 -8.765625 4.109375 -8.484375 C 3.671875 -8.203125 3.367188 -7.785156 3.203125 -7.234375 C 3.066406 -6.835938 3 -6.242188 3 -5.453125 L 3 0 L 1.28125 0 L 1.28125 -10.15625 L 2.828125 -10.15625 L 2.828125 -8.75 C 3.191406 -9.3125 3.640625 -9.722656 4.171875 -9.984375 C 4.710938 -10.253906 5.296875 -10.390625 5.921875 -10.390625 Z M 5.921875 -10.390625 "/></g></g></g><g fill="#000000" fill-opacity="1"><g transform="translate(61.888729, 22.067306)"><g><path d="M 5.5625 -10.390625 C 6.40625 -10.390625 7.082031 -10.304688 7.59375 -10.140625 C 8.113281 -9.984375 8.523438 -9.75 8.828125 -9.4375 C 9.109375 -9.132812 9.300781 -8.800781 9.40625 -8.4375 C 9.507812 -8.070312 9.5625 -7.585938 9.5625 -6.984375 L 9.5625 -2.875 C 9.5625 -1.5625 9.75 -0.601562 10.125 0 L 8.3125 0 C 8.144531 -0.351562 8.03125 -0.769531 7.96875 -1.25 C 7.332031 -0.726562 6.71875 -0.347656 6.125 -0.109375 C 5.53125 0.117188 4.914062 0.234375 4.28125 0.234375 C 3.175781 0.234375 2.3125 -0.03125 1.6875 -0.5625 C 1.0625 -1.101562 0.75 -1.8125 0.75 -2.6875 C 0.75 -3.144531 0.851562 -3.582031 1.0625 -4 C 1.269531 -4.425781 1.554688 -4.757812 1.921875 -5 C 2.316406 -5.257812 2.710938 -5.445312 3.109375 -5.5625 C 3.515625 -5.6875 4.015625 -5.78125 4.609375 -5.84375 C 5.234375 -5.90625 5.851562 -5.992188 6.46875 -6.109375 C 7.09375 -6.222656 7.550781 -6.335938 7.84375 -6.453125 L 7.84375 -6.890625 C 7.84375 -7.578125 7.65625 -8.097656 7.28125 -8.453125 C 6.90625 -8.804688 6.269531 -8.984375 5.375 -8.984375 C 4.519531 -8.984375 3.90625 -8.832031 3.53125 -8.53125 C 3.164062 -8.226562 2.894531 -7.734375 2.71875 -7.046875 L 1.046875 -7.25 C 1.273438 -8.351562 1.765625 -9.148438 2.515625 -9.640625 C 3.265625 -10.140625 4.28125 -10.390625 5.5625 -10.390625 Z M 5.375 -4.515625 C 4.707031 -4.410156 4.191406 -4.304688 3.828125 -4.203125 C 3.472656 -4.109375 3.175781 -3.945312 2.9375 -3.71875 C 2.707031 -3.488281 2.59375 -3.15625 2.59375 -2.71875 C 2.59375 -2.21875 2.773438 -1.828125 3.140625 -1.546875 C 3.515625 -1.265625 4.039062 -1.125 4.71875 -1.125 C 5.113281 -1.125 5.539062 -1.203125 6 -1.359375 C 6.457031 -1.523438 6.859375 -1.8125 7.203125 -2.21875 C 7.421875 -2.476562 7.582031 -2.769531 7.6875 -3.09375 C 7.789062 -3.425781 7.84375 -3.847656 7.84375 -4.359375 L 7.84375 -5.09375 C 7.320312 -4.882812 6.5 -4.691406 5.375 -4.515625 Z M 5.375 -4.515625 "/></g></g></g><g fill="#000000" fill-opacity="1"><g transform="translate(72.790579, 22.067306)"><g><path d="M 3.046875 -12.078125 L 1.3125 -12.078125 L 1.3125 -14.046875 L 3.046875 -14.046875 Z M 3.046875 0 L 1.3125 0 L 1.3125 -10.15625 L 3.046875 -10.15625 Z M 3.046875 0 "/></g></g></g><g fill="#000000" fill-opacity="1"><g transform="translate(77.143475, 22.067306)"><g><path d="M 3.3125 -10.15625 L 5.046875 -10.15625 L 5.046875 -8.859375 L 3.3125 -8.859375 L 3.3125 -2.5625 C 3.3125 -2.125 3.375 -1.8125 3.5 -1.625 C 3.625 -1.445312 3.882812 -1.359375 4.28125 -1.359375 C 4.363281 -1.359375 4.617188 -1.390625 5.046875 -1.453125 L 5.296875 0.078125 C 4.773438 0.179688 4.347656 0.234375 4.015625 0.234375 C 3.347656 0.234375 2.835938 0.128906 2.484375 -0.078125 C 2.140625 -0.296875 1.90625 -0.597656 1.78125 -0.984375 C 1.65625 -1.367188 1.59375 -1.867188 1.59375 -2.484375 L 1.59375 -8.859375 L 0.328125 -8.859375 L 0.328125 -10.15625 L 1.59375 -10.15625 L 1.59375 -12.6875 L 3.3125 -13.734375 Z M 3.3125 -10.15625 "/></g></g></g><g fill="#000000" fill-opacity="1"><g transform="translate(82.594406, 22.067306)"><g><path d="M 5.046875 -10.390625 C 5.628906 -10.390625 6.207031 -10.207031 6.78125 -9.84375 L 6.203125 -8.25 C 5.773438 -8.5 5.332031 -8.625 4.875 -8.625 C 4.226562 -8.625 3.75 -8.328125 3.4375 -7.734375 C 3.132812 -7.140625 2.984375 -6.375 2.984375 -5.4375 L 2.984375 0 L 1.25 0 L 1.25 -10.15625 L 2.796875 -10.15625 L 2.796875 -8.625 C 3.128906 -9.21875 3.453125 -9.660156 3.765625 -9.953125 C 4.085938 -10.242188 4.515625 -10.390625 5.046875 -10.390625 Z M 5.046875 -10.390625 "/></g></g></g><g fill="#000000" fill-opacity="1"><g transform="translate(89.12375, 22.067306)"><g><path d="M 3.046875 -12.078125 L 1.3125 -12.078125 L 1.3125 -14.046875 L 3.046875 -14.046875 Z M 3.046875 0 L 1.3125 0 L 1.3125 -10.15625 L 3.046875 -10.15625 Z M 3.046875 0 "/></g></g></g><g fill="#000000" fill-opacity="1"><g transform="translate(93.476647, 22.067306)"><g><path d="M 3.703125 0 L 1.75 0 L 1.75 -1.96875 L 3.703125 -1.96875 Z M 3.703125 0 "/></g></g></g></svg>